<svg xmlns="http://www.w3.org/2000/svg" viewBox="0 0 400 300">
  <defs>
    <linearGradient id="bg" x1="0" y1="0" x2="1" y2="1">
      <stop offset="0" stop-color="#f8fafb"/><stop offset="1" stop-color="#e8edf2"/>
    </linearGradient>
  </defs>
  <rect width="400" height="300" fill="url(#bg)"/>
  <ellipse cx="200" cy="264" rx="120" ry="10" fill="#000" opacity="0.06"/>
  <g>
    <rect x="130" y="56" width="24" height="22" rx="4" fill="#111827"/>
    <rect x="135" y="78" width="14" height="26" fill="#374151"/>
    <g fill="#0b6e5c">
      <ellipse cx="142" cy="108" rx="28" ry="6"/>
      <ellipse cx="142" cy="120" rx="28" ry="6"/>
      <ellipse cx="142" cy="132" rx="28" ry="6"/>
      <ellipse cx="142" cy="144" rx="28" ry="6"/>
      <ellipse cx="142" cy="156" rx="28" ry="6"/>
    </g>
    <rect x="136" y="166" width="12" height="64" fill="#6b7280"/>
    <circle cx="142" cy="238" r="8" fill="#111827"/>
  </g>
  <g transform="translate(110,0)">
    <rect x="130" y="56" width="24" height="22" rx="4" fill="#111827"/>
    <rect x="135" y="78" width="14" height="26" fill="#374151"/>
    <g fill="#0b6e5c">
      <ellipse cx="142" cy="108" rx="28" ry="6"/>
      <ellipse cx="142" cy="120" rx="28" ry="6"/>
      <ellipse cx="142" cy="132" rx="28" ry="6"/>
      <ellipse cx="142" cy="144" rx="28" ry="6"/>
      <ellipse cx="142" cy="156" rx="28" ry="6"/>
    </g>
    <rect x="136" y="166" width="12" height="64" fill="#6b7280"/>
    <circle cx="142" cy="238" r="8" fill="#111827"/>
  </g>
  <text x="200" y="86" font-family="Arial" font-size="12" fill="#6b7280" text-anchor="middle">REAR PAIR · 0–3in LIFT RANGE</text>
</svg>
